<svg width="134" height="42" viewBox="0 0 134 42" fill="none" xmlns="http://www.w3.org/2000/svg">
<path d="M19.44 34V32.992H1.872V32.92L19.116 9.268V8.26H1.116V9.268H17.64V9.34L0.432 32.992V34H19.44ZM28.6701 34.432C33.9261 34.432 37.1301 30.544 37.1301 24.892C37.1301 19.24 33.9261 15.352 28.6701 15.352C23.4141 15.352 20.2101 19.24 20.2101 24.892C20.2101 30.544 23.4141 34.432 28.6701 34.432ZM28.6701 33.496C23.9541 33.496 21.3621 29.824 21.3621 24.892C21.3621 19.96 23.9541 16.288 28.6701 16.288C33.3861 16.288 35.9781 19.96 35.9781 24.892C35.9781 29.824 33.3861 33.496 28.6701 33.496ZM55.8498 24.64C55.8858 24.316 55.8858 24.028 55.8858 23.704C55.8858 19.096 53.1858 15.352 48.1458 15.352C43.1058 15.352 39.7218 19.06 39.7218 24.928C39.7218 30.544 42.8898 34.432 48.0738 34.432C52.4298 34.432 54.8418 31.696 55.6338 28.492H54.4818C54.0498 30.508 52.3938 33.496 48.1098 33.496C43.2498 33.496 40.8738 29.608 40.8738 24.856V24.64H55.8498ZM48.0738 16.288C52.7178 16.288 54.7338 19.816 54.7338 23.704H40.8738C41.0538 19.78 43.5738 16.288 48.0738 16.288ZM69.4946 34V22.876H77.4866C82.2386 22.876 85.6226 20.968 85.6226 15.568C85.6226 10.168 82.2386 8.26 77.4866 8.26H68.3426V34H69.4946ZM69.4946 21.868V9.268H77.8106C81.8786 9.268 84.3986 11.176 84.3986 15.568C84.3986 19.96 81.8786 21.868 77.8106 21.868H69.4946ZM93.1579 34.396C96.0739 34.396 98.4499 33.424 99.9259 31.048H99.9979C99.9979 33.46 100.79 34.072 102.194 34.072C102.446 34.072 102.77 34.036 103.022 34V33.064C102.77 33.1 102.59 33.136 102.338 33.136C101.294 33.136 101.078 32.524 101.078 30.976V20.932C101.078 16.756 98.3779 15.352 95.0299 15.352C89.8459 15.352 88.2619 18.268 88.0819 20.824H89.2339C89.4139 18.052 91.3219 16.288 95.0299 16.288C97.8739 16.288 99.9979 17.62 99.9979 20.392C99.9979 23.56 96.9019 23.488 94.1299 23.92C89.3779 24.676 87.2179 26.116 87.2179 29.5C87.2179 32.488 89.6299 34.396 93.1579 34.396ZM93.4459 33.46C90.1339 33.46 88.3699 32.02 88.3699 29.176C88.3699 26.296 90.9619 25.288 94.4899 24.856C97.1899 24.532 99.4579 24.172 99.9979 22.984V27.628C99.9979 30.436 97.9459 33.46 93.4459 33.46ZM112.924 15.388C110.368 15.388 108.136 17.188 107.344 19.6H107.272V15.64H106.192V34H107.272V22.66C107.272 18.952 110.116 16.36 113.284 16.36C113.428 16.36 114.004 16.396 114.256 16.432V15.496C113.896 15.424 113.5 15.388 112.924 15.388ZM131.135 34L122.603 22.588L129.875 15.64H128.363L117.959 25.72V8.26H116.879V34H117.959V26.98L121.847 23.272L129.803 34H131.135Z" fill="#3E3E3E"/>
</svg>
